<svg width="18.000000" height="18.000000" viewBox="0 0 18 18" fill="none" xmlns="http://www.w3.org/2000/svg" xmlns:xlink="http://www.w3.org/1999/xlink">
	<desc>
			Created with Pixso.
	</desc>
	<defs/>
	<path id="Vector" d="M11.2453 9L17.5302 2.71521C17.8285 2.41736 17.9962 2.01331 17.9966 1.59192C17.997 1.17041 17.8299 0.766113 17.5322 0.467773C17.2344 0.169556 16.8304 0.00183105 16.4089 0.00134277C15.9875 0.000976562 15.5831 0.168091 15.2848 0.46582L9 6.75073L2.71516 0.46582C2.41688 0.167603 2.01233 0 1.5905 0C1.16867 0 0.764126 0.167603 0.465847 0.46582C0.167572 0.76416 0 1.1687 0 1.59045C0 2.01233 0.167572 2.41687 0.465847 2.71521L6.75069 9L0.465847 15.2848C0.167572 15.5831 0 15.9877 0 16.4095C0 16.8313 0.167572 17.2358 0.465847 17.5342C0.764126 17.8324 1.16867 18 1.5905 18C2.01233 18 2.41688 17.8324 2.71516 17.5342L9 11.2493L15.2848 17.5342C15.5831 17.8324 15.9877 18 16.4095 18C16.8313 18 17.2359 17.8324 17.5342 17.5342C17.8324 17.2358 18 16.8313 18 16.4095C18 15.9877 17.8324 15.5831 17.5342 15.2848L11.2453 9Z" fill="#575757" fill-opacity="1.000000" fill-rule="nonzero"/>
</svg>
